<svg xmlns="http://www.w3.org/2000/svg" xmlns:xlink="http://www.w3.org/1999/xlink" width="33" height="34" viewBox="0 0 33 34">
  <defs>
    <rect id="rect-1" width="33" height="34" x="0" y="0"/>
    <mask id="mask-2" maskContentUnits="userSpaceOnUse" maskUnits="userSpaceOnUse">
      <rect width="33" height="34" x="0" y="0" fill="black"/>
      <use fill="white" xlink:href="#rect-1"/>
    </mask>
  </defs>
  <g>
    <use fill="none" xlink:href="#rect-1"/>
    <g mask="url(#mask-2)">
      <rect width="33" height="34" x="0" y="0" fill="none" rx="0" ry="0"/>
      <path fill="rgb(35,31,32)" fill-rule="evenodd" d="M20.21250153 32.4416504c.09166717.0472412.22916412.0472412.3208313.0472412.3666687 0 .73333358-.23608398.87083435-.66107178l7.05833435-19.9277954c.09166717-.2833252.04582977-.5666504-.09166718-.80279542l-5.40833282-9.5861206c-.22917176-.4249878-.6875-.5666504-1.1000023-.4249878L11.77916719 4.8166504q-.4125023.14172362-.55000306.56671142L4.1708336 25.3583374c-.18333435.51947022.09166717 1.0388794.54999923 1.2277832l15.4916687 5.8555298zm-.22916794-2.125L6.1875 25.1694336l6.59999847-18.652771 8.9833336-3.3527832 4.8125038 8.5-6.60000228 18.652771z"/>
      <path fill="rgb(35,31,32)" fill-rule="evenodd" d="M21.12916667 9.11388889c-.275.75555555-1.05416667 1.13333333-1.74166667.85-.73333333-.28333333-1.1-1.08611111-.825-1.79444445.275-.75555555 1.05416667-1.13333333 1.74166667-.85.73333333.28333334 1.1 1.08611112.825 1.79444445z"/>
      <rect width="1.833" height="8.5" x="13.501" y="19.7" fill="rgb(35,31,32)" rx="0" ry="0" transform="rotate(-70.001025 14.41723713 23.95009577)"/>
      <rect width="1.833" height="8.5" x="14.449" y="17.067" fill="rgb(35,31,32)" rx="0" ry="0" transform="rotate(-70.001025 15.36529034 21.31731524)"/>
    </g>
  </g>
</svg>
