<svg xmlns="http://www.w3.org/2000/svg" xmlns:xlink="http://www.w3.org/1999/xlink" width="31" height="34" viewBox="0 0 31 34">
  <defs>
    <rect id="rect-1" width="31" height="34" x="0" y="0"/>
    <mask id="mask-2" maskContentUnits="userSpaceOnUse" maskUnits="userSpaceOnUse">
      <rect width="31" height="34" x="0" y="0" fill="black"/>
      <use fill="white" xlink:href="#rect-1"/>
    </mask>
  </defs>
  <g>
    <use fill="none" xlink:href="#rect-1"/>
    <g mask="url(#mask-2)">
      <rect width="31" height="34" x="0" y="0" fill="none" rx="0" ry="0"/>
      <path fill="rgb(51,51,51)" fill-rule="evenodd" d="M19.41802979 18.0861206c2.0236206-1.46392822 3.4013977-3.9666748 3.4013977-6.75280761 0-4.34442139-3.3583374-8.027771-7.31942749-8.027771-3.9611206 0-7.319458 3.68334961-7.319458 8.027771 0 2.78613281 1.3777771 5.2888794 3.4013977 6.75280762C7.0610962 19.597229 4.305542 23.847229 4.305542 29.75c0 .51940918.3875122.944458.8611145.944458h20.66665649c.47363281 0 .8611145-.42504882.8611145-.944458 0-5.902771-2.7555542-10.152771-7.2763977-11.6638794zm-9.5152588-6.75274658C9.902771 8.027771 12.4861145 5.19445801 15.5 5.19445801s5.597229 2.83331299 5.597229 6.13891601c0 3.305542-2.5833435 6.13885498-5.597229 6.13885498-3.0138855 0-5.597229-2.83331298-5.597229-6.13885498zM15.5 19.36108398c-5.5541687 0-9.0847168 3.777771-9.4291687 9.44445801h18.8583374c-.3444519-5.66668701-3.875-9.444458-9.4291687-9.444458z"/>
    </g>
  </g>
</svg>
