<svg xmlns="http://www.w3.org/2000/svg" xmlns:xlink="http://www.w3.org/1999/xlink" width="24" height="28" viewBox="0 0 24 28">
  <defs>
    <rect id="rect-1" width="24" height="28" x="0" y="0"/>
    <rect id="rect-2" width="24" height="-28" x="0" y="28"/>
    <mask id="mask-3" maskContentUnits="userSpaceOnUse" maskUnits="userSpaceOnUse">
      <rect width="24" height="28" x="0" y="0" fill="black"/>
      <use fill="white" xlink:href="#rect-2"/>
    </mask>
  </defs>
  <g>
    <use fill="none" xlink:href="#rect-2"/>
    <g mask="url(#mask-3)">
      <rect width="24" height="-28" x="0" y="28" fill="none" rx="0" ry="0"/>
      <path fill="rgb(51,51,51)" fill-rule="evenodd" d="M19.66666412 9.33332825V23.3333435c0 1.08886718-.73332977 1.55554199-1.66666412 1.55554199H6c-.93333435 0-1.66666794-.4666748-1.66666794-1.555542V4.6666565c0-1.08888245.73333359-2.33332825 1.66666794-2.33332825h7c.23332977 0 .43333435.3888855.43333435.3888855l6 5.94999694c0-.0388794.23332977.31112671.23332977.66111756zM5.66666794 4.666687v18.6666565c0 .13839721.04689789.11264038.1267891.0687561.05481338-.03012085.1251602-.0687561.20654296-.0687561h12c.08138657 0 .1517334.03863525.20654678.0687561.0798912.04388428.1267891.06964111.1267891-.0687561V9.722229H14c-.93333054 0-1.66666412-.46665955-1.66666412-1.555542V3.88890076H6c-.19999695 0-.33333206.54444885-.33333206.77778625zm8 3.49996948V5.1722107l3.5 2.9944458H14c-.08138275 0-.15172958.03863526-.20654297.06874085-.0798912.04388428-.1267891.06964111-.1267891-.06874085z"/>
      <path fill="rgb(51,51,51)" fill-rule="evenodd" d="M13 15.55555556H9c-.36666667 0-.66666667.35-.66666667.77777777 0 .42777778.3.77777778.66666667.77777778h4c.36666667 0 .66666667-.35.66666667-.77777778 0-.42777777-.3-.77777777-.66666667-.77777777z"/>
      <path fill="rgb(51,51,51)" fill-rule="evenodd" d="M13 19.05555556H9c-.36666667 0-.66666667.35-.66666667.77777777 0 .42777778.3.77777778.66666667.77777778h4c.36666667 0 .66666667-.35.66666667-.77777778 0-.42777777-.3-.77777777-.66666667-.77777777z"/>
      <path fill="rgb(51,51,51)" fill-rule="evenodd" d="M13 12.05555556H9c-.36666667 0-.66666667.35-.66666667.77777777 0 .42777778.3.77777778.66666667.77777778h4c.36666667 0 .66666667-.35.66666667-.77777778 0-.42777777-.3-.77777777-.66666667-.77777777z"/>
    </g>
  </g>
</svg>
