<svg xmlns="http://www.w3.org/2000/svg" xmlns:xlink="http://www.w3.org/1999/xlink" width="32" height="34" viewBox="0 0 32 34">
  <defs>
    <rect id="rect-1" width="32" height="34" x="0" y="0"/>
    <mask id="mask-2" maskContentUnits="userSpaceOnUse" maskUnits="userSpaceOnUse">
      <rect width="32" height="34" x="0" y="0" fill="black"/>
      <use fill="white" xlink:href="#rect-1"/>
    </mask>
  </defs>
  <g>
    <use fill="none" xlink:href="#rect-1"/>
    <g mask="url(#mask-2)">
      <rect width="32" height="34" x="0" y="0" fill="none" rx="0" ry="0"/>
      <path fill="rgb(51,51,51)" fill-rule="evenodd" d="M27.1111145 12.75c0-.33050537-.13334656-.6138916-.40000915-.80273438l-9.2444458-8.4055786h-.04444886c-.04443359-.04724122-.08888244-.0944214-.17776489-.0944214h-.04444885c-.0888977-.0472412-.1333313-.0472412-.222229-.0472412h-9.4222107c-1.2444458 0-2.222229 1.03887939-2.222229 2.36108398V28.4277954c0 1.32220459.9777832 2.36114502 2.222229 2.36114502H24.8888855c1.2444458 0 2.222229-1.03894043 2.222229-2.36114502V12.75zM7.55555725 28.805542H24.8888855c.26667785 0 .444458-.18884278.444458-.47216798V13.69445801H18.222229C16.9777832 13.694458 16 12.6555786 16 11.33337402V5.19445801H7.55555725c-.2666626 0-.44444275.1889038-.44444275.472229v22.66668701c0 .2833252.17778015.47216797.44444275.47216797zM17.777771 6.2805786l6.04444885 5.52502442h-5.6000061c-.2666626 0-.44444275-.18890381-.44444275-.472229V6.2805786z"/>
      <g>
        <path fill="rgb(51,51,51)" fill-rule="evenodd" d="M9.33332825 26.444458c0 .2833252.17778015.47222901.44444275.47222901.2666626 0 .44444275-.1889038.44444275-.472229v-2.125h1.3333435c1.0222168 0 1.777771-1.13336182 1.777771-2.125 0-.99163819-.7555542-2.125-1.777771-2.125H9.777771c-.2666626 0-.44444275.1889038-.44444275.472229v5.902771zm2.222229-3.069458H10.222229v-2.36108398h1.33332825c.4888916 0 .88890076.6611328.88890076 1.18054199 0 .51947021-.40000916 1.18054199-.88890076 1.18054199z"/>
        <path fill="rgb(51,51,51)" fill-rule="evenodd" d="M14.57777405 26.20837402c0 .2833252.17778015.47216797.44444275.47216797 2.3555603 0 3.55555725-1.13330078 3.55555725-3.30554199 0-2.17218018-1.19999695-3.305542-3.55555725-3.305542-.2666626 0-.44444275.18890382-.44444275.47222901v5.66668701zm.8888855-.51947021V21.013916c1.5111084.1416626 2.222229.80279542 2.222229 2.31390381 0 1.5111084-.66667175 2.2666626-2.222229 2.36108399z"/>
        <path fill="rgb(51,51,51)" fill-rule="evenodd" d="M20.44444444 26.91666667c-.26666666 0-.44444444-.1888889-.44444444-.47222223v-5.90277777c0-.28333334.17777778-.47222223.44444444-.47222223h2.66666667c.26666667 0 .44444445.1888889.44444445.47222223 0 .28333333-.17777778.47222222-.44444445.47222222H20.8888889v5.43055555c0 .28333334-.17777778.47222223-.44444445.47222223z"/>
        <path fill="rgb(51,51,51)" fill-rule="evenodd" d="M22.22222222 23.84722222h-1.77777778C20.17777778 23.84722222 20 23.65833333 20 23.375c0-.28333333.17777778-.47222222.44444444-.47222222h1.77777778c.26666667 0 .44444445.18888889.44444445.47222222 0 .28333333-.17777778.47222222-.44444445.47222222z"/>
      </g>
    </g>
  </g>
</svg>
