<svg xmlns="http://www.w3.org/2000/svg" xmlns:xlink="http://www.w3.org/1999/xlink" width="82" height="108" viewBox="0 0 82 108">
  <defs>
    <rect id="rect-1" width="82" height="108" x="0" y="0"/>
    <mask id="mask-2" maskContentUnits="userSpaceOnUse" maskUnits="userSpaceOnUse">
      <rect width="82" height="108" x="0" y="0" fill="black"/>
      <use fill="white" xlink:href="#rect-1"/>
    </mask>
  </defs>
  <g>
    <use fill="none" xlink:href="#rect-1"/>
    <g mask="url(#mask-2)">
      <path fill="rgb(86,170,255)" fill-rule="evenodd" d="M82 17.7010789c0-4.80939284-3.95644258-8.74486989-8.79145658-8.74486989H8.79145658C3.95644258 8.95620901 0 12.89168606 0 17.70107891v81.5540512C0 104.06452294 3.95644258 108 8.79145658 108h64.42282913c4.83501401 0 8.79145659-3.93547705 8.79145659-8.7448699V17.7010789H82z"/>
      <path fill="rgb(255,255,255)" fill-rule="evenodd" d="M72.26680672 97.096044c0 .95959383-.79243697 1.7478316-1.75714285 1.7478316H11.49607843c-.96470588 0-1.75714286-.78823777-1.75714286-1.7478316V19.86587688c0-.95959383.79243698-1.7478316 1.75714286-1.7478316h59.01358544c.96470588 0 1.75714285.78823777 1.75714285 1.7478316V97.096044z"/>
      <path fill="rgb(244,84,88)" fill-rule="evenodd" d="M61.62058824 8.96192088v5.08927438c0 3.68986672-3.0032213 6.68288555-6.7184874 6.68288555H27.09789916c-3.70952381 0-6.7184874-2.99301883-6.7184874-6.68288555V8.96192088h41.24117648z"/>
      <ellipse cx="40.999" cy="8.959" fill="rgb(244,84,88)" rx="9.004" ry="8.956" transform="rotate(-45.000016 40.99876422 8.95859543)"/>
      <ellipse cx="41" cy="8.956" fill="rgb(255,255,255)" rx="2.917" ry="2.902"/>
      <g>
        <path fill="rgb(91,183,116)" fill-rule="evenodd" d="M61.62058824 58.4781045c0 11.32663423-9.23361345 20.51131797-20.62058824 20.51131797S20.37941176 69.80473873 20.37941176 58.4781045c0-11.32663423 9.23361345-20.51131796 20.62058824-20.51131796 11.39271709 0 20.62058824 9.18468373 20.62058824 20.51131796z"/>
        <path fill="rgb(255,255,255)" fill-rule="evenodd" d="M38.95 68.49672096l-8.88907563-7.14554685 3.84733894-4.7294267 4.2722689 3.43283266 9.61260504-11.12100698 4.63403362 3.96403639L38.95 68.49672096z"/>
      </g>
    </g>
  </g>
</svg>
