<svg xmlns="http://www.w3.org/2000/svg" xmlns:xlink="http://www.w3.org/1999/xlink" width="124" height="122" viewBox="0 0 124 122">
  <defs>
    <rect id="rect-1" width="124" height="122" x="0" y="0"/>
    <mask id="mask-2" maskContentUnits="userSpaceOnUse" maskUnits="userSpaceOnUse">
      <rect width="124" height="122" x="0" y="0" fill="black"/>
      <use fill="white" xlink:href="#rect-1"/>
    </mask>
  </defs>
  <g>
    <use fill="none" xlink:href="#rect-1"/>
    <g mask="url(#mask-2)">
      <g>
        <path fill="rgb(191,221,255)" fill-rule="evenodd" d="M36.93464917 103.86264342c-5.3406586-9.1608346-18.16244447-15.70144135-34.68904941-8.59793393-2.14887917.95643297-2.73340795 2.55048793-1.83769119 4.17941284 3.78892393 6.88432485 16.10608065 24.08019272 41.0557873 15.42746315l-4.5290467-11.00894206z"/>
        <path fill="rgb(215,232,255)" fill-rule="evenodd" d="M40.50069522 100.52010943C38.08688575 87.3890817 26.07250652 73.09240129 4.41550514 72.69886897c-1.69891817 0-2.4348357 1.33502103-2.09000577 3.50692091 1.4970665 9.42484995 8.35581782 34.90482218 38.9531658 38.71560982l-.77796995-14.40129027z"/>
        <path fill="rgb(223,238,255)" fill-rule="evenodd" d="M45.20636213 99.29467968c1.89656458-15.11363358-5.99247126-36.0306235-28.80170923-46.84030869-2.21616306-1.03613572-3.17075322-.07970274-3.50717265 1.99755012-1.64845526 10.12723042-3.75948724 41.47033605 28.22979618 60.57408844l4.0790857-15.73132987z"/>
      </g>
      <g>
        <rect width="66.868" height="95.763" x="30.501" y="17.151" fill="rgb(255,255,255)" rx="0" ry="0"/>
        <path fill="rgb(27,151,243)" fill-rule="evenodd" d="M34.41151428 11.26797485H93.9072876c3.89404297 0 7.08163452 3.77590943 7.0774231 8.3887024v89.15252685c0 4.61279297-3.1875763 8.3887024-7.08163453 8.3887024H34.41151428c-3.89405823 0-7.08163452-3.77590943-7.08163452-8.3887024V19.65667725c0-4.61279297 3.1875763-8.3887024 7.08163452-8.3887024zm55.9549408 97.52627564c1.94703674 0 3.54081726-1.88796997 3.54081726-4.19436646h-.00419617V23.87097168c0-2.30639648-1.59379577-4.19436646-3.54081726-4.19436646H37.95231628c-1.94703674 0-3.54081726 1.88796998-3.54081726 4.19436646v80.72891235c0 2.30639649 1.59378052 4.19436646 3.54081726 4.19436646h52.4141388z"/>
        <path fill="rgb(51,73,94)" fill-rule="evenodd" d="M85.75331502 13.36515455v6.3014985h-43.1878455v-6.3014985c0-2.30639827 1.5937871-4.19435711 3.5408146-4.19435711h36.10201106c1.95123275 0 3.54501984 1.88795884 3.54501984 4.1943571z"/>
        <path fill="rgb(51,73,94)" fill-rule="evenodd" d="M73.74734629 11.362623c0 3.27777551-1.1732628 6.23674003-3.04880117 8.30901148H57.61603418c-1.87553837-2.07227145-3.04880116-5.03123597-3.04880116-8.30901148 0-1.0560614.12195204-2.08223429.34903517-3.05361153C56.0432733 3.51688375 59.75650287 0 64.15939227 0c4.40288941 0 8.11611897 3.51688375 9.23891885 8.30901147.22708312.97137724.34903517 1.9925687.34903517 3.05361153z"/>
        <ellipse cx="64.159" cy="11.363" fill="rgb(255,255,255)" rx="2.847" ry="3.372"/>
        <g>
          <g>
            <g>
              <rect width="6.85" height="1.803" x="61.43" y="34.536" fill="rgb(51,73,94)" rx="0" ry="0"/>
              <rect width="15.644" height="1.803" x="70.11" y="34.536" fill="rgb(51,73,94)" rx="0" ry="0"/>
              <rect width="24.323" height="1.803" x="61.43" y="39.338" fill="rgb(51,73,94)" rx="0" ry="0"/>
              <rect width="12.544" height="1.803" x="61.43" y="44.145" fill="rgb(51,73,94)" rx="0" ry="0"/>
            </g>
            <g>
              <path fill="rgb(91,182,116)" fill-rule="evenodd" d="M57.25858853 40.23992487c0 4.80707199-3.28850002 8.7025438-7.3465595 8.7025438s-7.3465595-3.89547181-7.3465595-8.7025438c0-4.80707199 3.28850002-8.7025438 7.3465595-8.7025438s7.3465595 3.89547181 7.3465595 8.7025438z"/>
              <path fill="rgb(255,255,255)" fill-rule="evenodd" d="M49.2349849 44.07561962l-2.91002814-3.05859296 1.17746804-1.56416643 1.56014515 1.63888776 3.40204157-4.68751786 1.34147252 1.36490955-4.57109913 6.30647994z"/>
            </g>
          </g>
          <g>
            <g>
              <rect width="15.32" height="1.803" x="61.43" y="57.824" fill="rgb(235,237,255)" rx="0" ry="0"/>
              <rect width="10.837" height="1.803" x="61.43" y="62.631" fill="rgb(235,237,255)" rx="0" ry="0"/>
              <rect width="8.204" height="1.803" x="61.43" y="67.434" fill="rgb(235,237,255)" rx="0" ry="0"/>
            </g>
            <g>
              <path fill="rgb(235,237,255)" fill-rule="evenodd" d="M57.25858853 63.53305296c0 4.80707198-3.28850002 8.70254379-7.3465595 8.70254379s-7.3465595-3.8954718-7.3465595-8.7025438c0-4.80707198 3.28850002-8.70254378 7.3465595-8.70254378s7.3465595 3.8954718 7.3465595 8.70254379z"/>
              <path fill="rgb(255,255,255)" fill-rule="evenodd" d="M49.2349849 67.3687477l-2.91002814-3.05859295 1.17746804-1.56914785 1.56014515 1.64386918 3.40204157-4.68751787 1.34147252 1.36490956-4.57109913 6.30647993z"/>
            </g>
          </g>
          <g>
            <g>
              <rect width="7.288" height="1.803" x="61.43" y="81.117" fill="rgb(235,237,255)" rx="0" ry="0"/>
              <rect width="6.173" height="1.803" x="61.43" y="85.925" fill="rgb(235,237,255)" rx="0" ry="0"/>
              <rect width="6.173" height="1.803" x="61.43" y="90.727" fill="rgb(235,237,255)" rx="0" ry="0"/>
            </g>
            <g>
              <path fill="rgb(235,237,255)" fill-rule="evenodd" d="M57.25858853 86.82119962c0 4.80707199-3.28850002 8.7025438-7.3465595 8.7025438s-7.3465595-3.89547181-7.3465595-8.7025438c0-4.80707198 3.28850002-8.70254379 7.3465595-8.70254379s7.3465595 3.90045323 7.3465595 8.7025438z"/>
              <path fill="rgb(255,255,255)" fill-rule="evenodd" d="M49.2349849 90.6618758l-2.91002814-3.05859296 1.17746804-1.56914785 1.56014515 1.64386917 3.40204157-4.69249928 1.34147252 1.36989098-4.57109913 6.30647993z"/>
            </g>
          </g>
        </g>
      </g>
      <g>
        <ellipse cx="97.37" cy="90.347" fill="rgb(255,255,255)" rx="19.744" ry="23.388" transform="rotate(-45.000016 97.37022392 90.34735975)"/>
        <path fill="rgb(244,84,87)" fill-rule="evenodd" d="M107.25051718 102.0494059s-.15138875.17933119-.43314003.52304929c-.14297826.16438692-.32800895.36364379-.54247635.5977706-.22708312.21918256-.47519245.48817934-.7821752.7521947-.60134974.54297496-1.3709092 1.145727-2.32129412 1.69368338-.47098722.28394104-.99664259.53301213-1.5559399.77212038-.56350257.21918255-1.16485232.44334653-1.81245974.58780776-.07989961.01992569-.15979923.03985138-.24390409.05977706-.07989962.01992569-.16400448.02988853-.24810934.04981422-.16400447.02988853-.3322142.06475848-.50042391.09464701-.34062468.03985138-.6854546.09962844-1.04290026.1145727-.0883101.00498143-.1766202.00996285-.26913555.0199257l-.13456778.00996283h-.14297826c-.1766202 0-.35324041.00498143-.53406586.00498143s-.37426663-.01494427-.55929732-.02490711c-.18923593-.00498142-.37847187-.02490711-.5677078-.04981422-1.51388748-.15442407-3.0908536-.63762198-4.6173568-1.44959373-1.5265032-.81197174-2.98572252-1.9925687-4.24729542-3.47205096-1.2615729-1.47948226-2.32129413-3.26781266-3.07403262-5.24045567-.75694374-1.9676616-1.18587853-4.12461721-1.28680436-6.27160998l-.01682097-.40349516-.00420524-.04981422v-.36364379l-.00420525-.37360663v-.18929403l.00841049-.20921971c.01261573-.2739782.01682097-.55791924.03784719-.82193459l.06307864-.79204606c.10933632-1.05107998.29857225-2.08223429.55509207-3.07353721.25651983-.99130293.58452878-1.94275449.96300065-2.8394104.38267711-.8916745.82422762-1.72855335 1.29942008-2.50565514.23549361-.39353232.49201343-.75219468.74012277-1.11583847.26072506-.34869952.52145013-.69241762.79479092-1.01122861.5382711-.6426034 1.09756842-1.22044833 1.67368671-1.72357193.28175128-.25903393.5761183-.4831979.85786957-.7123433.1471835-.10460986.29016177-.21420114.43314003-.31382958.07148913-.04981422.14297826-.10460985.2144674-.15442407.07148912-.04981422.14297825-.09464702.21446739-.13947981.14297826-.09464701.28595652-.1843126.42472954-.2739782.14297826-.08468417.28175128-.16438692.4205243-.24907108.27754603-.16936834.55509207-.29888531.82422762-.43836512 1.08074745-.53301213 2.0731848-.8468417 2.89741242-1.04111714.2060569-.05479564.40370333-.0896656.58873402-.12453555.18503069-.03486995.35744565-.0697399.52145013-.08966559.32380371-.03985137.60134975-.07970275.82843287-.09464701.449961-.02988853.6938651-.0448328.6938651-.0448328v4.24915275s-.18923594 0-.53827111-.00498142c-.1766202-.00498142-.3910876.01494427-.64760742.0249071-.1261573.00498143-.26493031.02490712-.40790857.03985138-.1471835.01494427-.3027775.02988853-.46257673.05977706-.65181266.09962844-1.44239835.28394104-2.31708889.63762199-.21867263.09464701-.44575575.17933118-.66863363.29390388-.11354156.05479564-.23128837.10959128-.34482993.16936834-.11354156.06475848-.23128836.12951697-.34903516.19427545-.0588734.03486995-.1177468.06475848-.17662021.09962843-.0588734.03486996-.1177468.07472133-.1766202.10959128-.11774681.07472133-.23969886.14944265-.35744566.22416398-.23128836.16936834-.48360294.32379241-.71909655.51806786-.48360294.36364379-.96300065.79702748-1.42978262 1.28520681-.23969885.23910825-.46257673.5031236-.69386509.77212037-.21867264.27895962-.44575576.55791924-.6560179.86676739-.42472955.60275203-.82843288 1.26528112-1.18587853 1.97762443-.35324041.71732473-.66863363 1.48446368-.9293587 2.29643543-.26072506.81197174-.46678197 1.66379486-.61396548 2.55048793-.0294367.22416398-.06307864.44334654-.09251534.66751051-.0294367.22416398-.04205243.4333837-.06728389.65256625l-.01682097.16438692c-.00420524.05977706-.00841049.12453554-.00841049.1843126l-.01682097.37360664-.00841049.1843126-.00420524.09464701v.05977707l-.00420524.34869952c-.01682097 1.84810747.24810934 3.74104773.81581714 5.52439671.56350256 1.77836757 1.41296164 3.44714385 2.47688812 4.86186763 1.05972123 1.4197052 2.32549937 2.60030215 3.6879981 3.4571067 1.36249873.85680453 2.80489707 1.42468661 4.21785872 1.67873912.1766202.03486995.3532404.0697399.52565537.0896656.17241496.01992568.34062468.04981421.51724489.06475847.18082545.00996285.35744565.02490711.53406586.03486996l.12195204.00996284h.38267712c.34062468.01494427.67283887-.01992569.99664258-.02988853.16400448-.01992569.32380371-.03486995.48360295-.05479564.07989961-.00996284.15979923-.01494426.23969885-.02988853.07989962-.01494426.15559399-.0249071.2354936-.03985137.62658121-.0896656 1.21531523-.25903393 1.77461255-.42840227.55509207-.19427545 1.0765422-.39353232 1.55173466-.63264057.95459016-.46327222 1.74517584-1.00126577 2.3675518-1.4894451.31539323-.23910824.5761183-.4831979.8116119-.68245478.22708312-.21420113.4205243-.39851374.57191305-.55293781.30698273-.32877384.46678197-.49814218.46678197-.49814218z"/>
        <path fill="rgb(244,84,87)" fill-rule="evenodd" d="M97.3724014 100.88873464s-.10933632.00498142-.31539323.01494426c-.10092583.00996285-.22708312.00498142-.37847187.00498142-.07569437 0-.15559399 0-.23969885-.00498142s-.1766202-.01494426-.27334079-.01992568c-.38267711-.03486996-.85366433-.09464702-1.38352494-.24408967-.52986062-.14446123-1.11859464-.3686252-1.73256011-.70238047-.61817072-.33375525-1.25316242-.78706463-1.87133313-1.35992813-.30698274-.28892246-.61396548-.60773346-.90412725-.9614144-.294367-.34869952-.5677078-.73725042-.82843287-1.15070842-.52145013-.82691601-.96300064-1.78334899-1.28680435-2.81948471-.16400448-.51806786-.28595652-1.05606141-.3910876-1.60899923-.04625767-.27895961-.09251534-.55293781-.1177468-.83687885-.01682097-.1394798-.03364195-.27895962-.04205243-.42342085l-.01682097-.21420113-.00841049-.10460986-.00420524-.05479564V90.32313911l-.01261573-.3885509c0-.0697399-.00420524-.12453554-.00420524-.19925686l.00420524-.22416398c.00420524-.14944265 0-.30386673.01261573-.44334654l.02523146-.42840227c.04625767-.56788208.1177468-1.14074558.2354936-1.6936834.22708312-1.11085704.58873402-2.17189987 1.055516-3.12833285.23128836-.47821649.48780818-.93650729.76535422-1.35494671.2733408-.42840227.57191304-.81695317.87469054-1.18059696.61396547-.72230615 1.27418862-1.32505818 1.93020653-1.79829325.6560179-.47323506 1.30362533-.82193459 1.90076983-1.0759871.59293926-.2540525 1.1354156-.40847658 1.58117136-.50810501.11354156-.02490711.21867264-.0448328.31959847-.0697399.10092583-.0199257.19344118-.02988854.28175128-.0448328.1766202-.02988853.32800895-.04981422.449961-.05977707.2439041-.0249071.37426663-.03486995.37426663-.03486995.99243734-.08966559 1.85451216.78706464 1.93441177 1.95769875.07569438 1.17561553-.66442839 2.19680699-1.6526605 2.291454-.07569437.00498142-.15138874.00996285-.22287787.00498142l-.05466816-.00498142s-.0883101-.00498142-.25231458-.01494426c-.08410486-.00996285-.1850307-.00996285-.3027775-.00996285h-.19344117c-.06728389.00498143-.14297826.00996285-.21867264.01494427-.30698274.01992569-.6854546.06475848-1.11018415.17434976-.42472954.10959128-.899922.27895962-1.40034591.53799355-.50042392.25903393-1.0176688.6176963-1.5265032 1.07100567-.25231459.2291454-.50462916.48319791-.74012277.76713895-.23969885.27895962-.47098722.5927892-.6854546.92156303-.43314004.66751051-.79899618 1.43464946-1.07233697 2.27152831-.13877302.41843943-.2439041.85680454-.3322142 1.3051325l-.0588734.33873668c-.02102621.1145727-.0294367.21918256-.04625767.32877383l-.02102622.16438692c-.00841048.04981422-.01261573.12453555-.01682097.18929403l-.0294367.3885509-.01261573.3237924c-.00841048.11955413-.00420524.23412683-.00420524.34869953-.00420524.23412682.00841048.46825365.02102621.70238047.03364195.46825364.0883101.93152586.1766202 1.38981666.17662021.91160018.46257674 1.78833041.8410486 2.58037647.18923594.39851374.39529285.7771018.62237597 1.12580131.22287788.35866237.46678197.68245478.7148913.98632151.50462917.60275203 1.04290027 1.11085705 1.58117137 1.50937079.5382711.39851374 1.07233696.69241762 1.5643504.91160018.48780818.21918256.93776918.35368094 1.30783056.43836511.09251535.01992569.18082545.03985138.26493031.05977706.08410486.01494427.16400448.02988853.2354936.03985138.14718351.0249071.2733408.0448328.37426663.05479564.20605691.01494426.31539323.02988853.31539323.02988853z"/>
        <path fill="rgb(51,73,94)" fill-rule="evenodd" d="M99.5927697 87.81748397c-.13877302-.16438691-.29436701-.31382957-.45416625-.44334653v-13.7437426c0-1.16067127-.79479092-2.09717856-1.7704073-2.09717856-.97982161 0-1.7704073.9365073-1.7704073 2.09717856v13.7437426c-.15979923.12951696-.31118798.27895962-.45416624.44334653-.59293926.70238047-.92094821 1.63888776-.92094821 2.6351721 0 .99628436.32800895 1.93279165.92094821 2.63517211.59293926.70238047 1.38352495 1.09093136 2.22457354 1.09093136.8410486 0 1.63163428-.3885509 2.22457355-1.09093136.59293926-.70238046.92094821-1.63888775.92094821-2.6351721.00420524-.99628435-.32380371-1.93279164-.92094821-2.6351721z"/>
        <path fill="rgb(51,73,94)" fill-rule="evenodd" d="M104.87876013 49.09191131v7.99020049H100.913216v2.10215997c-1.16064706-.1843126-2.34232034-.27895961-3.5408146-.27895961-1.19849424 0-2.38437277.094647-3.54081459.27895961V57.0821118h-3.96554414V49.0919113h15.01271747z"/>
        <path fill="rgb(51,73,94)" fill-rule="evenodd" d="M122.19174551 70.3227308l-2.59042968 2.75970765c-.97982161-1.75844188-2.10682673-3.39732963-3.35998914-4.88179332l2.3969885-2.55546935 3.55343032 4.67755502z"/>
        <path fill="rgb(51,73,94)" fill-rule="evenodd" d="M78.49927087 68.20064513c-1.25316242 1.4894451-2.38016754 3.12335144-3.35998915 4.88677474l-2.59042968-2.75970765 3.55343032-4.67755502 2.3969885 2.55048793z"/>
        <path fill="rgb(244,84,87)" fill-rule="evenodd" d="M116.241333 68.20062256c1.25315858 1.48446655 2.38015748 3.12335205 3.35998536 4.88180542C122.38098145 78.06384278 124 84.03659058 124 90.4576416c0 17.4249878-11.92607117 31.54733277-26.63180542 31.54733277-14.70994568 0-26.63180542-14.12731934-26.63180542-31.54733277 0-6.42105102 1.61901855-12.38879394 4.39868164-17.37023926.97982788-1.76342773 2.10682678-3.39730835 3.35998535-4.88677978 4.03703308-4.80706787 9.37348938-8.0798645 15.33232117-9.01635742 1.15644836-.18432618 2.34231567-.27896118 3.54081726-.27896118 1.19848633 0 2.38015747.094635 3.54081726.27896118 5.95881653.9414978 11.29527283 4.20928955 15.33232117 9.01635742zm-18.86894225 45.40570068c5.22291565 0 10.13043213-2.40603637 13.82263183-6.77972412 3.69221497-4.37368774 5.7233429-10.18701172 5.72755432-16.37393188 0-6.18692017-2.03533935-12.00024414-5.72755432-16.37393189-3.6921997-4.37368774-8.59971618-6.78469848-13.82263183-6.78469848-5.22291565 0-10.13043213 2.41101074-13.82263184 6.78469848-3.6921997 4.37368775-5.72753906 10.18701172-5.72753906 16.37393189 0 6.18692016 2.03533935 12.00024414 5.72753906 16.37393188 3.6921997 4.36871338 8.59971619 6.77972412 13.82263184 6.77972412z"/>
      </g>
    </g>
  </g>
</svg>
