<svg xmlns="http://www.w3.org/2000/svg" xmlns:xlink="http://www.w3.org/1999/xlink" width="18" height="22" viewBox="0 0 18 22">
  <defs>
    <rect id="rect-1" width="18" height="22" x="0" y="0"/>
    <mask id="mask-2" maskContentUnits="userSpaceOnUse" maskUnits="userSpaceOnUse">
      <rect width="18" height="22" x="0" y="0" fill="black"/>
      <use fill="white" xlink:href="#rect-1"/>
    </mask>
  </defs>
  <g>
    <use fill="none" xlink:href="#rect-1"/>
    <g mask="url(#mask-2)">
      <g>
        <path fill="rgb(51,102,102)" fill-rule="evenodd" d="M15.73919012 5.71230881c-.03088538.04806992-.05559369.07210488-.080302.1041515L4.37954703 20.44573926c-.79684283 1.03350327-2.13726837.95338674-3.00205903-.16824472l-.04941661-.06409323c-.86479067-1.12163146-.92038435-2.86817189-.1297186-3.89366351L12.47769389 1.69045885l.080302-.1041515-.4694578-.60888565c-.03706246.04005827-.05559368.07210488-.08030199.1041515L.728895 15.71085215c-1.03157172 1.3379461-.9574468 3.60524399.16060398 5.0633649l.04941661.06409322c1.11805079 1.45010925 2.87234043 1.54624909 3.90391215.20830299L16.12834592 6.4173343l.08030199-.10415149-.4694578-.600874z"/>
        <path fill="rgb(51,102,102)" fill-rule="evenodd" d="M11.74262183.8412236c-.19148937-.24836125-.24090598-.5848507-.11118738-.75309541.1297186-.16824472.3891558-.1041515.58064517.14420976l4.5648593 5.9206118c.19148936.24836125.24090597.58485069.11118737.7530954-.1297186.16824473-.3891558.1041515-.58064516-.14420975L11.74262183.8412236z"/>
        <path fill="rgb(51,102,102)" fill-rule="evenodd" d="M5.4728895 10.18281136L.78448868 16.5280408l-.4694578 1.6984705.73507207 2.21922797 2.08167468 1.31391114 2.37817433-1.88273853 7.38160604-9.6941005H5.4728895z"/>
      </g>
      <path fill="rgb(51,102,102)" fill-rule="evenodd" d="M16.97460556 9.55789185c.07412338.2723999.5929985 1.3139038.80919647 1.73852539.74742508 1.49017334-.6300621 2.86816406-1.58133316 1.76257324-.59900665-.7024231-.13796615-1.57449341.28989792-2.38378906.21632004-.4091797.42416-.80230713.48223877-1.14935303v.03204346zm-.78448868 2.75601196c.0185318.35250854.27179337.769104.55593872.82519531.16677857.04006958.33973694-.08010864.25325775-.31243896-.06177139-.15222168-.34591674-.12820435-.44474792-.29644776-.26561356-.46466064-.16678238-1.01748657-.0555954-1.28985595v-.00802613c-.16060257.26437378-.33356094.63293457-.30885315 1.08157349z"/>
    </g>
  </g>
</svg>
