<svg xmlns="http://www.w3.org/2000/svg" xmlns:xlink="http://www.w3.org/1999/xlink" width="28.761" height="19.755" viewBox="0 0 28.761 19.755">
  <defs>
    <rect id="rect-1" width="10" height="27" x="9.38" y="-3.623"/>
    <mask id="mask-2" maskContentUnits="userSpaceOnUse" maskUnits="userSpaceOnUse">
      <rect width="28.761" height="19.755" x="0" y="0" fill="black"/>
      <use fill="white" xlink:href="#rect-1"/>
    </mask>
  </defs>
  <g transform="rotate(-67.000024 14.38047116 9.8773945)">
    <use fill="none" xlink:href="#rect-1"/>
    <g mask="url(#mask-2)">
      <g opacity=".22">
        <path fill="rgb(0,0,2)" fill-rule="evenodd" d="M17.94933344-2.83689121c-.0988024-.03928572-.23053892-.07142857-.4011976-.07142857h-.00598803c-.07784431 0-.1497006.00357142-.21257485.01428571l-5.29041916.02142857c-.11077844 0-.23053892.01071429-.4251497.04642857h-.01197605c-.0508982.01071429-.08982036.02142857-.11676647.02857143-.002994 0-.002994 0-.00598802.00357143-.91017964.275-1.5 1.12857143-1.5 2.17857143V.64882307c0 .775.32934132 1.5.86826347 1.93571429v16.54642857c0 2.35 1.63772455 4.24642857 3.65568863 4.24642857h.44011976c.96107784 0 1.85928143-.43214286 2.52994012-1.23214286.67365269-.8 1.04191616-1.86785714 1.04191616-3.01428571V2.6273945c.53892216-.42142857.86826348-1.14285714.86826348-1.97857143V-.61546264c-.00299402-1.10357143-.55988024-1.96071429-1.43413174-2.22142857z"/>
      </g>
      <path fill="rgb(255,255,255)" fill-rule="evenodd" d="M17.35053104-3.55117693c-.0988024-.03928571-.23053892-.07142857-.4011976-.07142857h-.00598802c-.07784432 0-.1497006.00357143-.21257485.01428572l-5.29041917.02142857c-.11077844 0-.23053892.01071428-.4251497.04642857h-.01197604c-.0508982.01071428-.08982036.02142857-.11676647.02857143-.00299401 0-.00299401 0-.00598803.00357143-.91017964.275-1.5 1.12857142-1.5 2.17857142v1.26428572c0 .775.32934132 1.5.86826348 1.93571428v16.54642858c0 2.35 1.63772455 4.24642857 3.65568862 4.24642857h.44011976c.96107784 0 1.85928144-.43214286 2.52994012-1.23214286.6736527-.8 1.04191617-1.86785714 1.04191617-3.01428571V1.91310879c.53892215-.42142857.86826347-1.14285715.86826347-1.97857143v-1.26428572c-.00299401-1.10357142-.55988024-1.96071428-1.43413174-2.22142857z"/>
      <g>
        <path fill="rgb(70,80,112)" fill-rule="evenodd" d="M17.02716064-2.17974854c-.02694702-.0071411-.05389404-.0250244-.07781982-.0250244h-.00601196c-.0359192 0-.06585694.0178833-.09280396.02142333l-5.40719604.02142334c-.02993775 0-.08682251.00360107-.25149536.03216553-.00598145 0-.0119629.00354004-.01794434.00354004-.38323975.11431884-.60180664.40356445-.60180664.79284668v1.26434326c0 .45709228.3173523.82141113.62576294.9142456.00357056.00213623.00704956.00048828.0107727-.00128173.00238038-.00109864.00479126-.0022583.00717163-.0022583l.05389405-.00714112c.04000854.00909424.07757568.00372315.1133728-.00146484.01986694-.00292969.03897095-.00567627.0572815-.00567627v17.58569336c0 1.5571289 1.10778808 2.82855224 2.46109008 2.82855224h.44012451c1.32632447 0 2.37722779-1.24639892 2.37722779-2.82855224V.83093262h.10479736c.0354004 0 .06652832.00506592.09429932.00964355.03796386.00622559.06964111.01141358.09732055.00109863.3413086-.09643554.5718689-.43933105.5718689-.90716552v-1.26428223c0-.44641113-.1946106-.75714111-.559906-.84997559zM16.8984375.38812256c-.0112915.00189209-.02520752-.00445557-.03890991-.01080322-.01171875-.0053711-.02328491-.01068116-.03295899-.01068116h-5.38323974c-.00549317 0-.01382447.0010376-.02365113.00219727-.02261352.00274658-.0524292.00634766-.07513427.0014038l-.04492188.01068116c-.14968872-.0499878-.3053894-.24279785-.3053894-.44995117v-1.26641846c-.00027466-.06964111-.00097656-.2611084.27844238-.34790039.1437378-.02496338.1706543-.0571289.1706543-.0571289h5.38024902c.00564575 0 .01193237.0071411.01828003.01428222.00717163.00811768.01434326.01617432.0206604.01428223.00598145 0 .01794434.02856445.01794434.02856445.00900268.00360107.03894043.00360107.0718689.00360107h.0149536c.15570069.0499878.20062256.13568116.20062256.34283448v1.26428222c0 .18572998-.06289672.41070557-.26049804.4607544-.00314331.00378418-.0038147.00256348-.00460816.00109863-.0007019-.00128174-.00152588-.00280762-.00436401-.00109863zm-5.03292847 5.87860107h4.4371338V.83099365h-4.4371338v5.43572998zm-.00299072 6.61419678V6.7666626h4.43713379v6.11425781h-4.43713379zm2.03894043 7.86437988h.440094c1.10180664 0 1.95809936-1.01428222 1.95211791-2.32861328v-5.07141113H11.8595276V18.416687c0 1.29284668.91018677 2.32861328 2.04193115 2.32861328z"/>
        <path fill="rgb(234,31,31)" fill-rule="evenodd" d="M12.24572754 9.86309814c0-1.23565673.8413086-2.2392578 1.8772583-2.2392578 1.03591919 0 1.87722778 1.00360107 1.87722778 2.2392578 0 1.23571778-.8413086 2.23931885-1.87722778 2.23931885-1.0359497 0-1.8772583-1.00360107-1.8772583-2.23931885zm3.05090332.58569336c.08981323 0 .19161987-.1071167.19161987-.2142334v-.7750244c0-.11071778-.10180664-.18927003-.19161987-.18927003h-.67663574V8.4416504c0-.1071167-.08084107-.21069336-.1706543-.21069336h-.65270996c-.08981323 0-.16467285.10357666-.16467285.21069336v.8250122h-.68261719c-.08984375 0-.18563843.08215333-.18563843.18927003v.77862549c0 .1071167.09579468.2142334.18563843.2142334h.68261719v.79644775c0 .1071167.07485962.16784668.16467285.16784668h.65270996c.08981323 0 .1706543-.06072998.1706543-.16784668v-.79644776h.67663574z"/>
      </g>
    </g>
  </g>
</svg>
